<?xml version="1.0" standalone="no"?>
<!DOCTYPE svg PUBLIC "-//W3C//DTD SVG 20010904//EN"
 "http://www.w3.org/TR/2001/REC-SVG-20010904/DTD/svg10.dtd">
<svg version="1.0" xmlns="http://www.w3.org/2000/svg"
 width="700.000000pt" height="700.000000pt" viewBox="0 0 700.000000 700.000000"
 preserveAspectRatio="xMidYMid meet">
<metadata>
Created by potrace 1.14, written by Peter Selinger 2001-2017
</metadata>
<g transform="translate(0.000000,700.000000) scale(0.100000,-0.100000)"
fill="#000000" stroke="none">
<path d="M4414 6855 c-52 -22 -65 -54 -69 -173 -6 -165 -15 -261 -36 -372 -84
-458 -290 -786 -585 -934 -87 -43 -164 -65 -264 -73 -91 -7 -122 -21 -144 -67
-14 -29 -15 -43 -6 -74 17 -65 39 -77 159 -87 405 -35 733 -423 835 -985 34
-186 38 -233 41 -518 3 -266 5 -276 66 -308 60 -31 143 11 153 78 3 18 7 110
10 203 3 94 8 179 10 190 2 11 7 54 11 95 4 41 15 120 26 175 24 132 24 130
53 237 106 387 305 664 560 778 77 34 140 50 229 56 76 5 107 19 133 59 22 33
13 99 -16 130 -25 26 -41 31 -144 40 -379 35 -694 387 -810 905 -31 141 -53
313 -55 440 -1 52 -4 110 -7 128 -6 31 -52 81 -77 83 -7 0 -19 2 -28 4 -8 1
-29 -3 -45 -10z m101 -1020 c52 -124 104 -217 180 -320 84 -114 246 -261 333
-303 17 -9 32 -19 32 -23 0 -4 -29 -25 -64 -48 -202 -132 -394 -406 -496 -709
l-28 -83 -17 53 c-103 314 -291 581 -517 731 -43 29 -78 54 -78 57 0 3 33 25
72 50 204 129 398 391 499 673 17 49 26 63 31 50 4 -10 27 -67 53 -128z"/>
<path d="M3073 5595 c-52 -22 -66 -55 -69 -158 -3 -101 -13 -305 -18 -352 -6
-53 -18 -160 -21 -175 -1 -8 -8 -49 -15 -90 -82 -502 -293 -959 -573 -1242
-242 -244 -514 -373 -828 -393 -90 -5 -120 -17 -142 -55 -21 -35 -22 -72 -2
-110 20 -39 57 -56 125 -59 490 -20 912 -332 1181 -873 129 -259 227 -605 263
-933 3 -27 8 -68 10 -90 13 -116 19 -270 20 -545 2 -219 6 -311 14 -328 29
-52 107 -71 158 -37 43 28 51 66 53 245 1 91 4 188 6 215 2 28 7 91 10 140 3
50 15 160 26 245 11 85 22 173 25 195 18 138 85 411 150 601 233 696 680 1129
1196 1160 51 3 108 10 126 16 58 17 88 92 61 151 -17 38 -62 58 -142 63 -198
11 -373 63 -532 156 -420 247 -714 714 -848 1348 -20 91 -38 190 -42 220 -4
30 -8 66 -10 80 -4 30 -16 158 -20 215 -2 22 -4 99 -5 170 -3 134 -12 177 -46
207 -27 24 -73 29 -111 13z m107 -1285 c167 -510 449 -899 820 -1132 47 -29
109 -64 138 -77 29 -14 52 -27 52 -30 0 -3 -34 -23 -75 -45 -426 -218 -768
-715 -945 -1374 l-33 -123 -27 108 c-105 420 -299 792 -551 1060 -51 53 -92
92 -177 166 -54 46 -159 114 -255 163 l-89 46 96 52 c145 77 269 169 386 286
168 169 292 346 400 573 77 163 158 383 186 507 l7 35 10 -35 c5 -19 31 -100
57 -180z"/>
</g>
</svg>
